# xmcd CD database file
#
# Track frame offsets:
#	150
#	4067
#	31600
#	60063
#	102787
#	134675
#	160688
#	216960
#	247427
#	268448
#
# Disc length: 3604 seconds
#
# Revision: 0
# Processed by: cddbd v1.5.2PL0 Copyright (c) Steve Scherf et al.
# Submitted via: CDex 1.51
#
DISCID=880e120a
DTITLE=Rory Gallagher - Rory At Midnight
DYEAR=1984
DGENRE=Blues
TTITLE0=Intro
TTITLE1=Double Vision
TTITLE2=Follow Me
TTITLE3=I Wonder Who
TTITLE4=Big Guns
TTITLE5=Out On The Western Plain
TTITLE6=Shadow Play
TTITLE7=Bullfrog Blues
TTITLE8=Sea Cruise
TTITLE9=Crowd
EXTD=YEAR: 1984
EXTT0=
EXTT1=
EXTT2=
EXTT3=
EXTT4=
EXTT5=
EXTT6=
EXTT7=
EXTT8=
EXTT9=
PLAYORDER=
